<?xml version="1.0" encoding="utf-8"?>
<!-- Generator: Adobe Illustrator 17.1.0, SVG Export Plug-In . SVG Version: 6.00 Build 0)  -->
<!DOCTYPE svg PUBLIC "-//W3C//DTD SVG 1.1//EN" "http://www.w3.org/Graphics/SVG/1.1/DTD/svg11.dtd">
<svg version="1.1" id="Слой_1" xmlns="http://www.w3.org/2000/svg" xmlns:xlink="http://www.w3.org/1999/xlink" x="0px" y="0px"
	 viewBox="0 0 89.2 73.3" enable-background="new 0 0 89.2 73.3" xml:space="preserve">
<g opacity="0.1">
	<defs>
		<rect id="SVGID_169_" x="-2436.2" y="-1220.1" opacity="0.1" width="1919.3" height="948.3"/>
	</defs>
	<clipPath id="SVGID_2_">
		<use xlink:href="#SVGID_169_"  overflow="visible"/>
	</clipPath>
	<g clip-path="url(#SVGID_2_)">
		<defs>
			<rect id="SVGID_285_" x="-1282.8" y="-458.3" width="1211.6" height="762.6"/>
		</defs>
		<clipPath id="SVGID_4_">
			<use xlink:href="#SVGID_285_"  overflow="visible"/>
		</clipPath>
		<g clip-path="url(#SVGID_4_)">
			<defs>
				<rect id="SVGID_311_" x="-470.2" y="-458.3" width="406.3" height="381.9"/>
			</defs>
			<clipPath id="SVGID_6_">
				<use xlink:href="#SVGID_311_"  overflow="visible"/>
			</clipPath>
			<g clip-path="url(#SVGID_6_)">
				<defs>
					<rect id="SVGID_315_" x="-473.8" y="-268" width="456.7" height="191.6"/>
				</defs>
				<clipPath id="SVGID_8_">
					<use xlink:href="#SVGID_315_"  overflow="visible"/>
				</clipPath>
				<g clip-path="url(#SVGID_8_)">
					<g>
						<g>
							<g>
								<path fill="none" stroke="#FFFFFF" stroke-linecap="round" stroke-linejoin="round" stroke-miterlimit="10" d="M4.6,63.1
									l20.3-3.5c0,0,0-14.5,0-19.9c0-5.9-1.5-14.2-11.1-19.5"/>
								<path fill="none" stroke="#FFFFFF" stroke-linecap="round" stroke-linejoin="round" stroke-miterlimit="10" d="M3.2,63.1
									l-20.3-3.5c0,0,0-14.5,0-19.9c0-5.8,1.5-14,10.9-19.4"/>
							</g>
							<g>
								<path fill="none" stroke="#FFFFFF" stroke-linecap="round" stroke-linejoin="round" stroke-miterlimit="10" d="M-20.1,54.6
									l20.3-3.5c0,0,0-14.5,0-19.9c0-5.9-1.5-14.2-11.1-19.5"/>
							</g>
							<g>
								<path fill="none" stroke="#FFFFFF" stroke-linecap="round" stroke-linejoin="round" stroke-miterlimit="10" d="M4.2-27.5
									L-16.2-24c0,0,0,14.5,0,19.9c0,5.6,1.3,13.4,9.8,18.7"/>
								<path fill="none" stroke="#FFFFFF" stroke-linecap="round" stroke-linejoin="round" stroke-miterlimit="10" d="M5.5-27.5
									L25.8-24c0,0,0,14.5,0,19.9c0,5.6-1.4,13.5-10.1,18.9"/>
							</g>
							<g>
								<path fill="none" stroke="#FFFFFF" stroke-linecap="round" stroke-linejoin="round" stroke-miterlimit="10" d="M-20.6-18.9
									l20.3,3.5c0,0,0,14.5,0,19.9c0,5.6-1.4,13.5-10.1,18.9"/>
							</g>
						</g>
					</g>
				</g>
			</g>
		</g>
		<g clip-path="url(#SVGID_4_)">
			<defs>
				<rect id="SVGID_317_" x="-477.4" y="-77.6" width="406.3" height="381.9"/>
			</defs>
			<clipPath id="SVGID_10_">
				<use xlink:href="#SVGID_317_"  overflow="visible"/>
			</clipPath>
			<g clip-path="url(#SVGID_10_)">
				<defs>
					<rect id="SVGID_319_" x="-477.4" y="-77.6" width="456.7" height="191.6"/>
				</defs>
				<clipPath id="SVGID_12_">
					<use xlink:href="#SVGID_319_"  overflow="visible"/>
				</clipPath>
				<g clip-path="url(#SVGID_12_)">
					<g>
						<g>
							<g>
								<path fill="none" stroke="#FFFFFF" stroke-linecap="round" stroke-linejoin="round" stroke-miterlimit="10" d="M4.7,62.9
									l20.3-3.5c0,0,0-14.5,0-19.9c0-5.9-1.5-14.2-11.1-19.5"/>
								<path fill="none" stroke="#FFFFFF" stroke-linecap="round" stroke-linejoin="round" stroke-miterlimit="10" d="M3.4,62.9
									l-20.3-3.5c0,0,0-14.5,0-19.9c0-5.8,1.5-14,10.9-19.4"/>
							</g>
							<g>
								<path fill="none" stroke="#FFFFFF" stroke-linecap="round" stroke-linejoin="round" stroke-miterlimit="10" d="M-19.9,54.3
									l20.3-3.5c0,0,0-14.5,0-19.9c0-5.9-1.5-14.2-11.1-19.5"/>
							</g>
							<g>
								<path fill="none" stroke="#FFFFFF" stroke-linecap="round" stroke-linejoin="round" stroke-miterlimit="10" d="M4.3-27.7
									L-16-24.2c0,0,0,14.5,0,19.9c0,5.6,1.3,13.4,9.8,18.7"/>
								<path fill="none" stroke="#FFFFFF" stroke-linecap="round" stroke-linejoin="round" stroke-miterlimit="10" d="M5.7-27.7
									L26-24.2c0,0,0,14.5,0,19.9c0,5.6-1.4,13.5-10.1,18.9"/>
							</g>
							<g>
								<path fill="none" stroke="#FFFFFF" stroke-linecap="round" stroke-linejoin="round" stroke-miterlimit="10" d="M-20.4-19.1
									l20.3,3.5c0,0,0,14.5,0,19.9c0,5.6-1.4,13.5-10.1,18.9"/>
							</g>
						</g>
						<g>
							<g>
								<path fill="none" stroke="#FFFFFF" stroke-linecap="round" stroke-linejoin="round" stroke-miterlimit="10" d="M28.7,66.7
									L8.4,70.2c0,0,0,14.5,0,19.9c0,5.6,1.3,13.4,9.8,18.7"/>
								<path fill="none" stroke="#FFFFFF" stroke-linecap="round" stroke-linejoin="round" stroke-miterlimit="10" d="M30,66.7
									l20.3,3.5c0,0,0,14.5,0,19.9c0,5.6-1.4,13.5-10.1,18.9"/>
							</g>
							<g>
								<path fill="none" stroke="#FFFFFF" stroke-linecap="round" stroke-linejoin="round" stroke-miterlimit="10" d="M-20.4,66.7
									l20.3,3.5c0,0,0,14.5,0,19.9c0,5.6-1.4,13.5-10.1,18.9"/>
							</g>
						</g>
					</g>
				</g>
			</g>
			<g clip-path="url(#SVGID_10_)">
				<defs>
					<rect id="SVGID_321_" x="-481" y="112.7" width="456.7" height="191.6"/>
				</defs>
				<clipPath id="SVGID_14_">
					<use xlink:href="#SVGID_321_"  overflow="visible"/>
				</clipPath>
				<g clip-path="url(#SVGID_14_)">
					<g>
						<g>
							<g>
								<path fill="none" stroke="#FFFFFF" stroke-linecap="round" stroke-linejoin="round" stroke-miterlimit="10" d="M28.8,66.4
									L8.5,69.9c0,0,0,14.5,0,19.9c0,5.6,1.3,13.4,9.8,18.7"/>
								<path fill="none" stroke="#FFFFFF" stroke-linecap="round" stroke-linejoin="round" stroke-miterlimit="10" d="M30.2,66.4
									l20.3,3.5c0,0,0,14.5,0,19.9c0,5.6-1.4,13.5-10.1,18.9"/>
							</g>
							<g>
								<path fill="none" stroke="#FFFFFF" stroke-linecap="round" stroke-linejoin="round" stroke-miterlimit="10" d="M-20.3,66.4
									L0,69.9c0,0,0,14.5,0,19.9c0,5.6-1.4,13.5-10.1,18.9"/>
							</g>
						</g>
					</g>
				</g>
			</g>
		</g>
	</g>
</g>
<g>
	<g>
		<g opacity="0.7">
			<path fill="#FFFFFF" d="M31.2,41.5c-1.1,0-2.3,1-2.5,2.2l-6.1,27.5c-0.3,1.2,0.4,2.2,1.6,2.2h38.6c1.1,0,2.3-1,2.5-2.2l4.4-20.5
				l-7.4-9.1H31.2z"/>
			<path opacity="0.2" fill="#0034D6" d="M62.5,41.5L61,48.5c-0.3,1.2,0.5,2.2,1.6,2.2h7.3L62.5,41.5z"/>
		</g>
		<g opacity="0.7">
			<path fill="#FFFFFF" d="M84.1,31.5c-0.2,0.9-1,1.6-1.9,1.6H63.2c-0.8,0-1.4-0.7-1.2-1.6l6.5-29.9c0.2-0.9,1-1.6,1.9-1.6h14.2
				l4.7,7.2L84.1,31.5z"/>
			<path opacity="0.2" fill="#0034D6" d="M89.3,7.2h-4.8c-0.8,0-1.4-0.7-1.2-1.6L84.6,0L89.3,7.2z"/>
		</g>
		<g>
			<path fill="#FFFFFF" d="M49.3,61c-0.4,1.7-1.9,3-3.5,3H9.9c-1.6,0-2.5-1.3-2.2-3L20.2,4.9c0.4-1.7,1.9-3,3.5-3h26.7l8.9,13.6
				L49.3,61z"/>
			<path opacity="0.4" fill="#0034D6" d="M59.3,15.5h-9c-1.6,0-2.5-1.3-2.2-3l2.3-10.6L59.3,15.5z"/>
		</g>
		<polyline fill="none" stroke="#FF9D00" stroke-width="4" stroke-linecap="round" stroke-miterlimit="10" points="2.1,24.2 8,31.4 
			21.8,18.4 		"/>
		<g>
			<path fill="#E7E8E8" d="M48.1,41.6c-0.1,0.6-0.6,1-1.2,1H20.1c-0.5,0-0.8-0.4-0.7-1l0.2-1c0.1-0.6,0.6-1,1.2-1h26.8
				c0.5,0,0.8,0.4,0.7,1L48.1,41.6z"/>
			<path fill="#E7E8E8" d="M47,46.6c-0.1,0.6-0.6,1-1.2,1H19c-0.5,0-0.8-0.4-0.7-1l0.2-1c0.1-0.6,0.6-1,1.2-1h26.8
				c0.5,0,0.8,0.4,0.7,1L47,46.6z"/>
			<path fill="#E7E8E8" d="M38.3,51.6c-0.1,0.6-0.6,1-1.2,1H17.9c-0.5,0-0.8-0.4-0.7-1l0.2-1c0.1-0.6,0.6-1,1.2-1h19.3
				c0.5,0,0.8,0.4,0.7,1L38.3,51.6z"/>
		</g>
		<path fill="#E7E8E8" d="M44,31.1c-0.4,1.7-1.9,3-3.5,3H23.9c-1.6,0-2.5-1.3-2.2-3l2.8-12.5c0.4-1.7,1.9-3,3.5-3h16.6
			c1.6,0,2.5,1.3,2.2,3L44,31.1z"/>
	</g>
</g>
</svg>
