<?xml version="1.0" encoding="utf-8"?>
<!-- Generator: Adobe Illustrator 17.1.0, SVG Export Plug-In . SVG Version: 6.00 Build 0)  -->
<!DOCTYPE svg PUBLIC "-//W3C//DTD SVG 1.1//EN" "http://www.w3.org/Graphics/SVG/1.1/DTD/svg11.dtd">
<svg version="1.1" id="Слой_1" xmlns="http://www.w3.org/2000/svg" xmlns:xlink="http://www.w3.org/1999/xlink" x="0px" y="0px"
	 viewBox="0 0 93.4 89.8" enable-background="new 0 0 93.4 89.8" xml:space="preserve">
<g>
	<g>
		<g opacity="0.7">
			<path fill="#FFFFFF" d="M93.4,74.9c0,1.4-1.1,2.5-2.5,2.4L59,74.4c-1.4-0.1-2.5-1.4-2.5-2.8l-0.2-48.4c0-1.4,1.1-2.5,2.5-2.4
				l24,2.2l10.6,12.7V74.9z"/>
			<path opacity="0.2" fill="#0034D6" d="M93.4,35.8l-8.1-0.7c-1.4-0.1-2.5-1.4-2.5-2.8l0-9.1L93.4,35.8z"/>
		</g>
		<g opacity="0.7">
			<path fill="#FFFFFF" d="M52.5,54.5c0,1.4-1.1,2.5-2.5,2.4L18,54c-1.4-0.1-2.5-1.4-2.5-2.8L15.1,2.5c0-1.4,1.1-2.5,2.5-2.4l24,2.3
				l10.7,12.8L52.5,54.5z"/>
			<path opacity="0.2" fill="#0034D6" d="M52.4,15.2l-8.1-0.8c-1.4-0.1-2.5-1.4-2.6-2.8l0-9.2L52.4,15.2z"/>
		</g>
		<g>
			<path fill="#FFFFFF" d="M66.6,87.4c0,1.5-1.1,2.5-2.6,2.4L31.6,87c-1.4-0.1-2.6-1.4-2.6-2.9l-0.3-49.4c0-1.5,1.1-2.5,2.6-2.4
				l24.4,2.2l10.8,12.9L66.6,87.4z"/>
			<path opacity="0.4" fill="#0034D6" d="M66.5,47.5l-8.2-0.7c-1.4-0.1-2.6-1.4-2.6-2.9l0-9.3L66.5,47.5z"/>
		</g>
		<g>
			<path fill="#E7E8E8" d="M60.5,60.2c0,0.6-0.4,1-1,0.9l-22.9-2c-0.5,0-1-0.5-1-1.1l0-1c0-0.6,0.4-1,1-0.9l22.9,2
				c0.5,0,1,0.5,1,1.1L60.5,60.2z"/>
			<path fill="#E7E8E8" d="M60.5,65.2c0,0.6-0.4,1-1,0.9l-22.9-2c-0.5,0-1-0.5-1-1.1l0-1c0-0.6,0.4-1,1-0.9l22.9,2
				c0.5,0,1,0.5,1,1.1L60.5,65.2z"/>
			<path fill="#E7E8E8" d="M52.7,69.6c0,0.6-0.4,1-1,0.9l-15-1.3c-0.5,0-1-0.5-1-1.1l0-1c0-0.6,0.4-1,1-0.9l15,1.3
				c0.5,0,1,0.5,1,1.1L52.7,69.6z"/>
		</g>
		<path fill="#FF9D00" d="M22.8,28.5c0,1.7-1.3,2.9-2.9,2.8L3.2,29.7c-1.6-0.2-3-1.6-3-3.3l-0.1-8c0-1.7,1.3-2.9,2.9-2.8l16.8,1.6
			c1.6,0.2,3,1.6,3,3.3L22.8,28.5z"/>
	</g>
</g>
</svg>
