<?xml version="1.0" encoding="utf-8"?>
<!-- Generator: Adobe Illustrator 17.1.0, SVG Export Plug-In . SVG Version: 6.00 Build 0)  -->
<!DOCTYPE svg PUBLIC "-//W3C//DTD SVG 1.1//EN" "http://www.w3.org/Graphics/SVG/1.1/DTD/svg11.dtd">
<svg version="1.1" id="Слой_1" xmlns="http://www.w3.org/2000/svg" xmlns:xlink="http://www.w3.org/1999/xlink" x="0px" y="0px"
	 viewBox="0 0 73.5 77.4" enable-background="new 0 0 73.5 77.4" xml:space="preserve">
<g>
	<g>
		<g opacity="0.7">
			<path fill="#FFFFFF" d="M63.2,54.8c0,1.6-1.2,3.2-2.7,3.5l-33.6,7.8c-1.5,0.3-2.7-0.7-2.7-2.3l0.1-55.3c0-1.6,1.2-3.2,2.7-3.5
				l25.3-5l11.1,10.9L63.2,54.8z"/>
			<path opacity="0.2" fill="#0034D6" d="M63.5,10.9L55,12.7c-1.5,0.3-2.7-0.8-2.7-2.4L52.4,0L63.5,10.9z"/>
		</g>
		<g>
			<path fill="#FFFFFF" d="M54.1,65.8c0,1.6-1.2,3.2-2.7,3.5l-33.6,8c-1.5,0.4-2.7-0.7-2.7-2.3l0.1-55.6c0-1.6,1.2-3.2,2.7-3.5
				l25.2-5.1l11.1,10.9L54.1,65.8z"/>
			<path opacity="0.4" fill="#0034D6" d="M54.3,21.7l-8.5,1.8c-1.5,0.3-2.7-0.7-2.7-2.4l0-10.4L54.3,21.7z"/>
		</g>
		<path fill="#FF9D00" d="M21.4,41c0,1.6-1.2,3.2-2.7,3.5L2.7,48C1.2,48.4,0,47.3,0,45.6v-8.5c0-1.7,1.2-3.3,2.7-3.6l16-3.4
			c1.5-0.3,2.7,0.8,2.7,2.4L21.4,41z"/>
		<g>
			<path fill="#E7E8E8" d="M48.2,40.8c0,0.5-0.4,1.1-0.9,1.2l-25.2,5.6c-0.5,0.1-0.9-0.2-0.9-0.8l0-1c0-0.5,0.4-1.1,0.9-1.2
				l25.2-5.5c0.5-0.1,0.9,0.2,0.9,0.8L48.2,40.8z"/>
			<path fill="#E7E8E8" d="M48.2,45.7c0,0.5-0.4,1.1-0.9,1.2l-25.2,5.7c-0.5,0.1-0.9-0.2-0.9-0.8l0-1c0-0.5,0.4-1.1,0.9-1.2L47.3,44
				c0.5-0.1,0.9,0.2,0.9,0.8L48.2,45.7z"/>
			<path fill="#E7E8E8" d="M41.1,52.2c0,0.5-0.4,1.1-0.9,1.2l-18,4.1c-0.5,0.1-0.9-0.2-0.9-0.8l0-1c0-0.5,0.4-1.1,0.9-1.2l18-4.1
				c0.5-0.1,0.9,0.2,0.9,0.8L41.1,52.2z"/>
		</g>
		<path fill="#FF9D00" d="M73.5,72.4c0,0.5-0.4,1.1-0.9,1.2L58.4,77c-0.5,0.1-0.9-0.2-0.9-0.8l0-6.5c0-0.5,0.4-1.1,0.9-1.2l14.2-3.4
			c0.5-0.1,0.9,0.2,0.9,0.7L73.5,72.4z"/>
	</g>
</g>
</svg>
