<?xml version="1.0" encoding="utf-8"?>
<!-- Generator: Adobe Illustrator 17.1.0, SVG Export Plug-In . SVG Version: 6.00 Build 0)  -->
<!DOCTYPE svg PUBLIC "-//W3C//DTD SVG 1.1//EN" "http://www.w3.org/Graphics/SVG/1.1/DTD/svg11.dtd">
<svg version="1.1" id="Слой_1" xmlns="http://www.w3.org/2000/svg" xmlns:xlink="http://www.w3.org/1999/xlink" x="0px" y="0px"
	 viewBox="0 0 38.9 47.4" enable-background="new 0 0 38.9 47.4" xml:space="preserve">
<g>
	<g>
		<path fill="#FF9D00" d="M37.5,3.4L19.7,0c-0.2,0-0.4,0-0.6,0L1.4,3.4C0.6,3.5,0,4.2,0,5v18.9c0,12.2,6.3,20,18.6,23.4
			c0.1,0,0.2,0.1,0.3,0.1c0.1,0,0.2,0,0.3,0h0c0.1,0,0.2,0,0.3,0c0.1,0,0.2,0,0.3-0.1c0.1,0,0.2-0.1,0.3-0.1c0,0,0,0,0,0
			c0,0,0,0,0.1,0c0.1,0,0.1-0.1,0.2-0.2l0.1-0.1L35,32.8l0.1-0.1c0,0,0.1-0.1,0.1-0.1c2.4-2.5,3.7-6,3.7-10.6V5
			C38.9,4.2,38.3,3.5,37.5,3.4z M20.9,41.6v-5h3.2c0.8,0,1.5,0,2.2-0.1L20.9,41.6z M35.5,22.1c0,9.3-6.2,11.2-11.4,11.2h-4.9
			c-0.1,0-0.1,0-0.2,0h-1.5v10.2C8,40.3,3.3,33.9,3.3,23.9V6.4l16-3l16.2,3V22.1z"/>
		<path fill="#FFFFFF" d="M25.9,24.1H12.3c-0.5,0-0.9,0.4-0.9,0.9v1.5c0,0.5,0.4,0.9,0.9,0.9h13.6c0.5,0,0.9-0.4,0.9-0.9V25
			C26.8,24.5,26.4,24.1,25.9,24.1z M11.4,18.4v1.5c0,0.5,0.4,0.9,0.9,0.9h13.6c0.5,0,0.9-0.4,0.9-0.9v-1.5c0-0.5-0.4-0.9-0.9-0.9
			H12.3C11.8,17.5,11.4,17.9,11.4,18.4z M11.4,11.7v1.5c0,0.5,0.4,0.9,0.9,0.9h7.8c0.5,0,0.9-0.4,0.9-0.9v-1.5
			c0-0.5-0.4-0.9-0.9-0.9h-7.8C11.8,10.8,11.4,11.2,11.4,11.7z"/>
	</g>
</g>
</svg>
