<?xml version="1.0" encoding="utf-8"?>
<!-- Generator: Adobe Illustrator 17.1.0, SVG Export Plug-In . SVG Version: 6.00 Build 0)  -->
<!DOCTYPE svg PUBLIC "-//W3C//DTD SVG 1.1//EN" "http://www.w3.org/Graphics/SVG/1.1/DTD/svg11.dtd">
<svg version="1.1" id="Слой_1" xmlns="http://www.w3.org/2000/svg" xmlns:xlink="http://www.w3.org/1999/xlink" x="0px" y="0px"
	 viewBox="0 0 38.9 47.4" enable-background="new 0 0 38.9 47.4" xml:space="preserve">
<g opacity="0.1">
	<defs>
		<rect id="SVGID_169_" x="-2461.6" y="-1355.9" opacity="0.1" width="1919.3" height="948.3"/>
	</defs>
	<clipPath id="SVGID_2_">
		<use xlink:href="#SVGID_169_"  overflow="visible"/>
	</clipPath>
	<g clip-path="url(#SVGID_2_)">
		<defs>
			<rect id="SVGID_285_" x="-1308.1" y="-594.1" width="1211.6" height="762.6"/>
		</defs>
		<clipPath id="SVGID_4_">
			<use xlink:href="#SVGID_285_"  overflow="visible"/>
		</clipPath>
		<g clip-path="url(#SVGID_4_)">
			<defs>
				<rect id="SVGID_317_" x="-502.8" y="-213.4" width="406.3" height="381.9"/>
			</defs>
			<clipPath id="SVGID_6_">
				<use xlink:href="#SVGID_317_"  overflow="visible"/>
			</clipPath>
			<g clip-path="url(#SVGID_6_)">
				<defs>
					<rect id="SVGID_319_" x="-502.8" y="-213.4" width="456.7" height="191.6"/>
				</defs>
				<clipPath id="SVGID_8_">
					<use xlink:href="#SVGID_319_"  overflow="visible"/>
				</clipPath>
				<g clip-path="url(#SVGID_8_)">
					<g>
						<g>
							<g>
								<path fill="none" stroke="#FFFFFF" stroke-linecap="round" stroke-linejoin="round" stroke-miterlimit="10" d="M3.8,21.5
									L24.1,18c0,0,0-14.5,0-19.9c0-5.9-1.5-14.2-11.1-19.5"/>
								<path fill="none" stroke="#FFFFFF" stroke-linecap="round" stroke-linejoin="round" stroke-miterlimit="10" d="M2.4,21.5
									L-17.9,18c0,0,0-14.5,0-19.9c0-5.8,1.5-14,10.9-19.4"/>
							</g>
						</g>
					</g>
				</g>
			</g>
			<g clip-path="url(#SVGID_6_)">
				<defs>
					<rect id="SVGID_321_" x="-506.4" y="-23.1" width="456.7" height="191.6"/>
				</defs>
				<clipPath id="SVGID_10_">
					<use xlink:href="#SVGID_321_"  overflow="visible"/>
				</clipPath>
				<g clip-path="url(#SVGID_10_)">
					<g>
						<g>
							<g>
								<path fill="none" stroke="#FFFFFF" stroke-linecap="round" stroke-linejoin="round" stroke-miterlimit="10" d="M3.9,21.2
									l20.3-3.5c0,0,0-14.5,0-19.9c0-5.9-1.5-14.2-11.1-19.5"/>
								<path fill="none" stroke="#FFFFFF" stroke-linecap="round" stroke-linejoin="round" stroke-miterlimit="10" d="M2.5,21.2
									l-20.3-3.5c0,0,0-14.5,0-19.9c0-5.8,1.5-14,10.9-19.4"/>
							</g>
							<g>
								<path fill="none" stroke="#FFFFFF" stroke-linecap="round" stroke-linejoin="round" stroke-miterlimit="10" d="M-20.8,12.6
									l20.3-3.5c0,0,0-14.5,0-19.9c0-5.9-1.5-14.2-11.1-19.5"/>
							</g>
						</g>
					</g>
				</g>
			</g>
		</g>
	</g>
</g>
<g>
	<g>
		<path fill="#FF9D00" d="M37.5,3.4L19.7,0c-0.2,0-0.4,0-0.6,0L1.4,3.4C0.6,3.5,0,4.2,0,5v18.9c0,12.2,6.3,20,18.6,23.4
			c0.1,0,0.2,0.1,0.3,0.1c0.1,0,0.2,0,0.3,0h0c0.1,0,0.2,0,0.3,0c0.1,0,0.2,0,0.3-0.1c0.1,0,0.2-0.1,0.3-0.1c0,0,0,0,0,0
			c0,0,0,0,0.1,0c0.1,0,0.1-0.1,0.2-0.2l0.1-0.1L35,32.8l0.1-0.1c0,0,0.1-0.1,0.1-0.1c2.4-2.5,3.7-6,3.7-10.6V5
			C38.9,4.2,38.3,3.5,37.5,3.4z M20.9,41.6v-5h3.2c0.8,0,1.5,0,2.2-0.1L20.9,41.6z M35.5,22.1c0,9.3-6.2,11.2-11.4,11.2h-4.9
			c-0.1,0-0.1,0-0.2,0h-1.5v10.2C8,40.3,3.3,33.9,3.3,23.9V6.4l16-3l16.2,3V22.1z"/>
		<path fill="#FFFFFF" d="M25.9,24.1H12.3c-0.5,0-0.9,0.4-0.9,0.9v1.5c0,0.5,0.4,0.9,0.9,0.9h13.6c0.5,0,0.9-0.4,0.9-0.9V25
			C26.8,24.5,26.4,24.1,25.9,24.1z M11.4,18.4v1.5c0,0.5,0.4,0.9,0.9,0.9h13.6c0.5,0,0.9-0.4,0.9-0.9v-1.5c0-0.5-0.4-0.9-0.9-0.9
			H12.3C11.8,17.5,11.4,17.9,11.4,18.4z M11.4,11.7v1.5c0,0.5,0.4,0.9,0.9,0.9h7.8c0.5,0,0.9-0.4,0.9-0.9v-1.5
			c0-0.5-0.4-0.9-0.9-0.9h-7.8C11.8,10.8,11.4,11.2,11.4,11.7z"/>
	</g>
</g>
</svg>
